<?xml version="1.0" encoding="UTF-8"?>
<svg version="1.1" xmlns="http://www.w3.org/2000/svg" width="758" height="758">
<path d="M0 0 C250.14 0 500.28 0 758 0 C758 250.14 758 500.28 758 758 C507.86 758 257.72 758 0 758 C0 507.86 0 257.72 0 0 Z " fill="#000000" transform="translate(0,0)"/>
<path d="M0 0 C4.1325257 0.55603399 8.27145757 1.04557885 12.41333008 1.52644348 C16.06972922 1.95133417 19.72459372 2.38855513 23.37927246 2.82797241 C25.14228226 3.03855302 26.90571019 3.24566496 28.66955566 3.4491272 C31.10151917 3.73217201 33.53069843 4.03264264 35.95996094 4.33789062 C36.6882309 4.41908142 37.41650085 4.50027222 38.1668396 4.58392334 C40.18505859 4.84790039 40.18505859 4.84790039 43.42089844 5.58398438 C45.50608185 8.71175949 45.67459408 9.43449109 45.69555664 12.99414062 C45.70492752 13.88878021 45.7142984 14.7834198 45.72395325 15.70516968 C45.72320297 16.67580353 45.7224527 17.64643738 45.72167969 18.64648438 C45.72741501 19.65683746 45.73315033 20.66719055 45.73905945 21.7081604 C45.75135506 25.00026593 45.74506349 28.29188023 45.73339844 31.58398438 C45.7291687 33.26315948 45.7291687 33.26315948 45.72485352 34.97625732 C45.56668208 76.516404 38.57760723 116.7270588 18.42089844 153.58398438 C18.03724121 154.28845703 17.65358398 154.99292969 17.25830078 155.71875 C9.23442165 170.37644217 9.23442165 170.37644217 5.42089844 175.58398438 C4.76089844 175.58398438 4.10089844 175.58398438 3.42089844 175.58398438 C3.18886719 176.2878125 2.95683594 176.99164063 2.71777344 177.71679688 C1.15897676 181.16305218 -0.86887892 183.58872463 -3.32910156 186.45898438 C-3.77938721 186.98637207 -4.22967285 187.51375977 -4.69360352 188.05712891 C-5.98546717 189.56890895 -7.2821565 191.07656137 -8.57910156 192.58398438 C-9.1553125 193.28523437 -9.73152344 193.98648438 -10.32519531 194.70898438 C-13.63568635 198.72822553 -17.21035756 202.69617055 -21.57910156 205.58398438 C-22.56910156 205.58398438 -23.55910156 205.58398438 -24.57910156 205.58398438 C-24.80082031 206.14085937 -25.02253906 206.69773437 -25.25097656 207.27148438 C-26.99776581 210.31295271 -29.21999242 212.24576635 -31.82910156 214.58398438 C-32.76238281 215.42960938 -33.69566406 216.27523437 -34.65722656 217.14648438 C-37.51818902 219.53316963 -40.44750048 221.57081225 -43.57910156 223.58398438 C-44.65160156 224.32648438 -45.72410156 225.06898438 -46.82910156 225.83398438 C-49.57910156 227.58398438 -49.57910156 227.58398438 -51.57910156 227.58398438 C-51.57910156 228.24398437 -51.57910156 228.90398437 -51.57910156 229.58398438 C-67.88799206 238.92952837 -84.60547077 246.10549061 -102.57910156 251.58398438 C-103.25875977 251.79394043 -103.93841797 252.00389648 -104.63867188 252.22021484 C-108.59645751 253.43460531 -112.57174346 254.54558136 -116.57910156 255.58398438 C-117.59746094 255.84824219 -118.61582031 256.1125 -119.66503906 256.38476562 C-128.61623773 258.49794207 -137.64858527 259.52194758 -146.78540039 260.49438477 C-148.33650513 260.66442017 -148.33650513 260.66442017 -149.91894531 260.83789062 C-151.30134399 260.98206421 -151.30134399 260.98206421 -152.71166992 261.12915039 C-155.69425081 261.53608748 -155.69425081 261.53608748 -158.94360352 262.59814453 C-162.80423565 263.6450341 -166.43636209 263.98150387 -170.40722656 264.10351562 C-171.14520477 264.13144699 -171.88318298 264.15937836 -172.64352417 264.18815613 C-175.03853092 264.27164026 -177.43338005 264.33712622 -179.82910156 264.39648438 C-180.65311462 264.41767334 -181.47712769 264.4388623 -182.32611084 264.46069336 C-224.83958475 265.45251323 -265.29700558 254.61794918 -301.51660156 232.27148438 C-302.48279419 231.67726685 -302.48279419 231.67726685 -303.46850586 231.07104492 C-307.33226731 228.60975085 -310.34375488 225.85131142 -313.57910156 222.58398438 C-314.34609375 222.13152344 -315.11308594 221.6790625 -315.90332031 221.21289062 C-319.85166028 218.80930264 -323.0343112 215.67958621 -326.39160156 212.52148438 C-327.08447266 211.88404297 -327.77734375 211.24660156 -328.49121094 210.58984375 C-329.14541016 209.97818359 -329.79960937 209.36652344 -330.47363281 208.73632812 C-331.07022705 208.17937256 -331.66682129 207.62241699 -332.28149414 207.04858398 C-333.57910156 205.58398438 -333.57910156 205.58398438 -333.57910156 203.58398438 C-334.23910156 203.58398438 -334.89910156 203.58398438 -335.57910156 203.58398438 C-337.30566406 201.68554688 -337.30566406 201.68554688 -339.20410156 199.20898438 C-340.1515625 197.99082031 -340.1515625 197.99082031 -341.11816406 196.74804688 C-342.57910156 194.58398438 -342.57910156 194.58398438 -342.57910156 192.58398438 C-343.56910156 192.25398437 -344.55910156 191.92398438 -345.57910156 191.58398438 C-347.4178072 189.22248036 -349.10719615 186.8793112 -350.76660156 184.39648438 C-351.25418945 183.67396484 -351.74177734 182.95144531 -352.24414062 182.20703125 C-359.27525171 171.67190616 -365.06729787 160.9150235 -369.98925781 149.25976562 C-371.26048497 146.26672094 -372.67531193 143.39332285 -374.20410156 140.52148438 C-380.15995582 128.78494805 -382.9398072 115.68289838 -385.99267578 102.96630859 C-386.5235852 100.80951673 -387.08866207 98.66716814 -387.67675781 96.52539062 C-391.66695821 81.70247887 -393.82014601 66.63305405 -393.89160156 51.27148438 C-393.89708008 50.43077393 -393.90255859 49.59006348 -393.90820312 48.72387695 C-393.84501689 43.27842213 -393.6799597 37.67301561 -391.57910156 32.58398438 C-380.1700045 21.77717751 -360.87059321 19.88114134 -346.07373047 17.17724609 C-337.12317115 15.53988869 -328.2383732 13.61937266 -319.34692383 11.68969727 C-317.10749616 11.20391249 -314.8675982 10.72028987 -312.62719727 10.23901367 C-310.78330187 9.84276447 -308.94037313 9.44192594 -307.09936523 9.0324707 C-299.22955252 7.34814135 -291.25010359 6.47308246 -283.26660156 5.52148438 C-281.10250103 5.26138659 -278.93855334 5.00014567 -276.77485657 4.73670959 C-274.82538278 4.49965106 -272.87547161 4.26619753 -270.92553711 4.03295898 C-269.00111267 3.77476853 -267.07923291 3.48009102 -265.17819214 3.0849762 C-262.65406241 2.59843357 -260.20861652 2.3211559 -257.6472168 2.11914062 C-256.69108994 2.04236084 -255.73496307 1.96558105 -254.74986267 1.88647461 C-253.72284744 1.80727783 -252.69583221 1.72808105 -251.63769531 1.64648438 C-250.56020523 1.56148682 -249.48271515 1.47648926 -248.37257385 1.38891602 C-246.08549371 1.20929543 -243.79829393 1.03119268 -241.51098633 0.85449219 C-238.08086269 0.58895897 -234.65126355 0.31732727 -231.22167969 0.04492188 C-220.19891629 -0.82024356 -209.18440447 -1.62401897 -198.135849 -2.07446289 C-194.57451233 -2.22675601 -191.06992291 -2.45855013 -187.53344727 -2.90991211 C-180.52082303 -3.7310271 -173.45134564 -3.76934342 -166.39941406 -3.95117188 C-164.82110916 -3.99432898 -163.24281133 -4.03774529 -161.66452026 -4.08140564 C-158.36136669 -4.17196268 -155.05815779 -4.25993519 -151.75488281 -4.34594727 C-147.57818222 -4.45482746 -143.40165872 -4.56931168 -139.22515583 -4.68549919 C-92.85086179 -5.97173492 -46.04988507 -6.25620082 0 0 Z " fill="#FEFEFE" transform="translate(552.5791015625,303.416015625)"/>
<path d="M0 0 C0 0.66 0 1.32 0 2 C0.70125 2.2475 1.4025 2.495 2.125 2.75 C8.18304619 5.38393313 13.05579937 9.58930644 18 13.875 C18.59039063 14.37902344 19.18078125 14.88304687 19.7890625 15.40234375 C23.70461189 18.77454597 27.47007223 22.22254681 31 26 C31 26.66 31 27.32 31 28 C31.66 28 32.32 28 33 28 C40.04425422 36.37213662 51.11668864 49.69687323 52.3125 60.9375 C52 63 52 63 51 64 C42.93276066 64.45703727 34.94947559 64.12032193 26.9375 63.125 C-3.69903668 59.4180083 -34.39540691 59.71847012 -65.20239258 59.80438232 C-70.12346413 59.81525952 -75.04450802 59.81484876 -79.96558952 59.81424427 C-84.76324222 59.8145178 -89.56087748 59.82002601 -94.35852432 59.82724571 C-96.62199905 59.8303889 -98.8854757 59.83238938 -101.14895248 59.83313942 C-112.55675457 59.84107695 -123.90028936 59.98613378 -135.28341675 60.75868225 C-140.71989437 61.11167274 -146.15615336 61.25597692 -151.6015625 61.39453125 C-175.29650422 62.07624978 -198.64432833 62.85946771 -222.08349609 66.55810547 C-225.4370379 67.06621786 -228.79175276 67.46165124 -232.1652832 67.80883789 C-238.89549619 68.50290154 -245.58941873 69.32930794 -252.28515625 70.296875 C-253.62787849 70.48984917 -253.62787849 70.48984917 -254.99772644 70.6867218 C-267.27807987 72.46133709 -279.54474204 74.32824236 -291.8125 76.1875 C-294.27017039 76.55932347 -296.72785262 76.93106872 -299.18554688 77.30273438 C-305.1238342 78.20092426 -311.06197651 79.10006758 -317 80 C-319.07247925 76.25692749 -319.07247925 76.25692749 -318.42016602 73.94458008 C-318.03530029 73.22681396 -317.65043457 72.50904785 -317.25390625 71.76953125 C-316.83222168 70.97087646 -316.41053711 70.17222168 -315.97607422 69.34936523 C-315.50959473 68.51219971 -315.04311523 67.67503418 -314.5625 66.8125 C-314.09602051 65.95406494 -313.62954102 65.09562988 -313.14892578 64.21118164 C-309.90274992 58.34627492 -306.38849479 53.0720301 -302 48 C-300.56052474 46.1473664 -299.12306389 44.29316608 -297.6875 42.4375 C-295.69921875 39.87109375 -295.69921875 39.87109375 -294 38 C-293.34 38 -292.68 38 -292 38 C-291.79375 37.2575 -291.5875 36.515 -291.375 35.75 C-289.58814055 32.17628111 -287.43960007 30.93477504 -284 29 C-283.34 29 -282.68 29 -282 29 C-281.77699219 28.43539062 -281.55398438 27.87078125 -281.32421875 27.2890625 C-273.09455423 13.06315274 -250.3405116 3.24512124 -236.32446289 -3.82666016 C-234.73317458 -4.62990893 -233.14660853 -5.44256264 -231.56420898 -6.26318359 C-225.73478838 -9.25464936 -219.8468892 -11.76951791 -213.6875 -14 C-212.74688721 -14.3417627 -211.80627441 -14.68352539 -210.8371582 -15.03564453 C-201.81731087 -18.2198272 -192.65897939 -20.50192964 -183.31396484 -22.50292969 C-181.0653848 -22.98595448 -178.82412399 -23.49564672 -176.58203125 -24.0078125 C-175.05522319 -24.34100595 -173.52786565 -24.67169029 -172 -25 C-170.8694519 -25.25378418 -170.8694519 -25.25378418 -169.71606445 -25.51269531 C-160.05124689 -27.49551363 -150.19902702 -27.96655315 -140.375 -28.625 C-139.41768982 -28.69003723 -138.46037964 -28.75507446 -137.47406006 -28.82208252 C-90.42970982 -31.97974486 -40.43960606 -27.06449932 0 0 Z " fill="#FECD1F" transform="translate(506,151)"/>
<path d="M0 0 C2.902003 -0.00219516 5.80362959 -0.02046925 8.70556641 -0.03930664 C20.42234366 -0.0743379 31.7952806 0.62921176 43.40478516 2.18530273 C45.062178 2.37679022 46.71969532 2.56721027 48.37744141 2.75561523 C73.16367995 5.96206073 97.3341058 12.68532583 120.40478516 22.18530273 C121.58427734 22.64678711 122.76376953 23.10827148 123.97900391 23.58374023 C131.736726 26.67025717 139.16929799 30.4285745 146.5859375 34.24926758 C148.13195785 35.04489738 149.68379093 35.82921599 151.23681641 36.61108398 C167.05932808 44.85045643 183.75334736 55.76922686 196.03759766 68.78686523 C197.4971286 70.35280343 197.4971286 70.35280343 199.84228516 71.99780273 C200.35791016 72.38967773 200.87353516 72.78155273 201.40478516 73.18530273 C201.40478516 73.84530273 201.40478516 74.50530273 201.40478516 75.18530273 C202.39478516 75.18530273 203.38478516 75.18530273 204.40478516 75.18530273 C204.40478516 75.84530273 204.40478516 76.50530273 204.40478516 77.18530273 C205.06478516 77.18530273 205.72478516 77.18530273 206.40478516 77.18530273 C206.40478516 77.84530273 206.40478516 78.50530273 206.40478516 79.18530273 C206.96166016 79.41217773 207.51853516 79.63905273 208.09228516 79.87280273 C211.06638103 81.5608031 213.12487381 83.6520679 215.40478516 86.18530273 C215.40478516 86.84530273 215.40478516 87.50530273 215.40478516 88.18530273 C216.30197266 88.55655273 216.30197266 88.55655273 217.21728516 88.93530273 C219.72105435 90.36602799 220.88550903 91.75446094 222.40478516 94.18530273 C222.40478516 94.84530273 222.40478516 95.50530273 222.40478516 96.18530273 C223.39478516 96.51530273 224.38478516 96.84530273 225.40478516 97.18530273 C229.40478516 101.64244559 229.40478516 101.64244559 229.40478516 104.18530273 C229.99001953 104.42635742 230.57525391 104.66741211 231.17822266 104.91577148 C233.84372065 106.43557297 235.16053088 108.06777218 237.02978516 110.49780273 C237.73232422 111.40788086 238.43486328 112.31795898 239.15869141 113.25561523 C239.89990234 114.22241211 240.64111328 115.18920898 241.40478516 116.18530273 C242.13568359 117.09022461 242.86658203 117.99514648 243.61962891 118.92749023 C251.36333187 128.64255185 257.98209873 139.07526223 264.68017578 149.52685547 C266.28901537 152.00684616 267.94166701 154.4507233 269.60791016 156.89233398 C272.23926387 160.82183388 274.37957439 164.85571596 276.40478516 169.12280273 C278.5917179 173.62218639 280.80609414 178.00409013 283.46728516 182.24780273 C291.08292571 194.6283093 296.3200283 208.6742807 302.14697266 221.95092773 C302.55802246 222.88710938 302.96907227 223.82329102 303.39257812 224.7878418 C305.2291603 229.13787484 305.49365913 232.47498235 305.40478516 237.18530273 C299.7955272 236.76980214 295.33377759 235.5878535 290.18994141 233.32202148 C287.35698645 232.10233213 287.35698645 232.10233213 284.08837891 231.26733398 C275.55314215 228.73298041 275.55314215 228.73298041 272.59619141 224.74780273 C271.3245627 221.98119976 270.22685525 219.19775155 269.20507812 216.33032227 C267.60045714 212.02946811 265.67197719 207.86559946 263.77978516 203.68530273 C263.1484668 202.28308472 263.1484668 202.28308472 262.50439453 200.85253906 C256.11942028 186.90971918 248.49246153 173.54360814 239.40478516 161.18530273 C238.33448429 159.58633025 237.27188244 157.98217576 236.21728516 156.37280273 C234.68075169 154.04975873 233.14680433 151.8628267 231.40478516 149.68530273 C229.66427227 147.50966162 228.21105186 145.34281183 226.71728516 142.99780273 C223.78929244 138.54695953 220.40016773 134.72939981 216.79541016 130.81811523 C214.23511061 127.99843894 211.77519502 125.11550549 209.34228516 122.18530273 C208.58818359 121.27780273 207.83408203 120.37030273 207.05712891 119.43530273 C205.40478516 117.18530273 205.40478516 117.18530273 205.40478516 115.18530273 C204.84791016 114.95842773 204.29103516 114.73155273 203.71728516 114.49780273 C200.77637472 112.82863735 198.79121766 110.57173524 196.40478516 108.18530273 C195.53853516 107.69030273 194.67228516 107.19530273 193.77978516 106.68530273 C190.9399385 104.89171537 190.06047184 103.06475784 188.40478516 100.18530273 C187.08514806 99.16729698 185.75468869 98.16281909 184.40478516 97.18530273 C184.40478516 96.52530273 184.40478516 95.86530273 184.40478516 95.18530273 C183.81181641 94.90557617 183.21884766 94.62584961 182.60791016 94.33764648 C180.57800234 93.27590392 178.94889201 92.16045229 177.15478516 90.74780273 C172.34768653 87.06807245 167.33971229 83.70035596 162.33496094 80.29833984 C158.61890883 77.7571713 155.02277905 75.15575408 151.52978516 72.31030273 C147.13822813 68.8250708 142.45835239 66.56466207 137.40478516 64.18530273 C135.67515693 63.30737009 133.94569626 62.42909499 132.21875 61.54589844 C128.63192383 59.72267793 125.01966518 57.95209783 121.40478516 56.18530273 C120.50356934 55.7431543 119.60235352 55.30100586 118.67382812 54.84545898 C104.85418673 48.12075396 91.31719319 42.88831657 76.40478516 39.18530273 C75.26783203 38.88237305 74.13087891 38.57944336 72.95947266 38.26733398 C54.0572988 33.30236298 34.6544922 30.0818218 15.11914062 29.47583008 C14.28398926 29.44956543 13.44883789 29.42330078 12.58837891 29.39624023 C11.85159912 29.37867676 11.11481934 29.36111328 10.35571289 29.34301758 C8.40478516 29.18530273 8.40478516 29.18530273 5.40478516 28.18530273 C3.76100769 28.09190629 2.11371244 28.05460569 0.46728516 28.05249023 C-1.0003125 28.05055664 -1.0003125 28.05055664 -2.49755859 28.04858398 C-4.03089844 28.05438477 -4.03089844 28.05438477 -5.59521484 28.06030273 C-6.58650391 28.05643555 -7.57779297 28.05256836 -8.59912109 28.04858398 C-14.35887768 28.05609345 -19.99066697 28.37093939 -25.71875 28.94897461 C-30.02822819 29.303038 -34.33460699 29.34571191 -38.65649414 29.42529297 C-53.29312002 29.71796636 -67.25469216 31.31638701 -81.59521484 34.18530273 C-82.49554443 34.35755371 -83.39587402 34.52980469 -84.32348633 34.70727539 C-85.19948486 34.87662598 -86.0754834 35.04597656 -86.97802734 35.22045898 C-87.7542041 35.3700708 -88.53038086 35.51968262 -89.33007812 35.67382812 C-92.39900017 36.36679985 -95.33433876 37.34646545 -98.29443359 38.40405273 C-101.36376524 39.44627061 -104.47590706 40.30447909 -107.59521484 41.18530273 C-125.00316259 46.22598794 -141.51014533 52.84287685 -157.59521484 61.18530273 C-159.00621553 61.88029314 -160.41906812 62.57153304 -161.83349609 63.25952148 C-162.55311523 63.61143555 -163.27273437 63.96334961 -164.01416016 64.32592773 C-165.40085599 65.00316597 -166.78941645 65.67660515 -168.18017578 66.34545898 C-172.06459847 68.25900665 -175.27258474 70.4267864 -178.59521484 73.18530273 C-179.9899415 74.01501239 -181.40669523 74.80907582 -182.84521484 75.56030273 C-188.60002059 78.68708053 -194.31484111 81.88982718 -198.95458984 86.56030273 C-202.3119895 89.89783612 -205.98573843 92.61910215 -209.77880859 95.43530273 C-213.342033 98.11820111 -216.48050566 100.97508288 -219.59521484 104.18530273 C-225.06435065 109.18530273 -225.06435065 109.18530273 -227.59521484 109.18530273 C-227.86309814 109.77988281 -228.13098145 110.37446289 -228.40698242 110.98706055 C-229.60732157 113.2077003 -230.80224482 114.60966343 -232.60693359 116.35717773 C-233.49106934 117.22354858 -233.49106934 117.22354858 -234.39306641 118.10742188 C-235.01665039 118.71062256 -235.64023438 119.31382324 -236.28271484 119.93530273 C-244.14940925 127.68572589 -251.11310913 135.70532235 -257.79443359 144.50952148 C-259.7544194 147.09221477 -261.7392079 149.65343179 -263.73974609 152.20483398 C-275.81207523 167.6625348 -285.76111286 183.68427059 -294.59521484 201.18530273 C-295.33736957 202.64235068 -296.07955608 204.09938243 -296.82177734 205.55639648 C-300.60242665 213.01579785 -304.21479511 220.53539334 -307.59521484 228.18530273 C-308.61076255 230.48006012 -309.62692929 232.77453974 -310.64404297 235.06860352 C-311.34499886 236.65084289 -312.04430223 238.23381572 -312.74169922 239.81762695 C-318.04840369 251.82076196 -318.04840369 251.82076196 -321.59521484 254.18530273 C-323.10845353 254.46018462 -324.63132669 254.68414802 -326.15771484 254.87280273 C-331.63107634 255.83304159 -335.03629856 258.32927096 -339.27099609 261.82202148 C-341.59521484 263.18530273 -341.59521484 263.18530273 -344.38818359 262.89233398 C-345.11650391 262.65901367 -345.84482422 262.42569336 -346.59521484 262.18530273 C-345.99604207 249.18325348 -341.48059493 237.12734295 -336.59521484 225.18530273 C-336.08099976 223.91940308 -336.08099976 223.91940308 -335.55639648 222.62792969 C-332.22841102 214.52233717 -328.61980373 206.55789248 -324.90771484 198.62280273 C-324.60251923 197.96943939 -324.29732361 197.31607605 -323.98287964 196.64291382 C-316.98911868 181.69729564 -309.82877228 166.89811782 -300.59521484 153.18530273 C-299.81569031 152.00619569 -299.03710959 150.82646434 -298.25927734 149.64624023 C-294.15534579 143.4348628 -289.99571695 137.2607264 -285.78271484 131.12280273 C-285.09564453 130.12120117 -284.40857422 129.11959961 -283.70068359 128.08764648 C-281.45900588 124.99754159 -279.05822209 122.10132059 -276.59521484 119.18530273 C-275.81919922 118.20948242 -275.04318359 117.23366211 -274.24365234 116.22827148 C-273.49341797 115.2859668 -272.74318359 114.34366211 -271.97021484 113.37280273 C-271.21482422 112.41760742 -270.45943359 111.46241211 -269.68115234 110.47827148 C-267.59521484 108.18530273 -267.59521484 108.18530273 -264.59521484 107.18530273 C-264.26521484 106.52530273 -263.93521484 105.86530273 -263.59521484 105.18530273 C-262.59521484 103.18530273 -262.59521484 103.18530273 -259.59521484 102.18530273 C-259.13115234 101.22624023 -259.13115234 101.22624023 -258.65771484 100.24780273 C-257.33737266 97.68478555 -256.11374745 97.44456904 -253.59521484 96.18530273 C-253.18529297 95.32098633 -253.18529297 95.32098633 -252.76708984 94.43920898 C-247.55928654 84.4228673 -235.38568992 76.88125721 -226.59521484 70.18530273 C-224.92829954 68.85228025 -223.26162177 67.51896068 -221.59521484 66.18530273 C-212.17220828 58.9469597 -202.81118163 52.25943155 -192.31787109 46.67358398 C-189.84462029 45.32163483 -187.47765177 43.87684552 -185.09521484 42.37280273 C-177.28850436 37.63656596 -168.89073412 33.97134431 -160.59521484 30.18530273 C-159.39509766 29.63616211 -158.19498047 29.08702148 -156.95849609 28.52124023 C-123.91888376 13.89779051 -88.33600344 6.21815489 -52.53271484 2.56030273 C-51.32679688 2.43703613 -50.12087891 2.31376953 -48.87841797 2.18676758 C-32.58550413 0.60261256 -16.36554801 -0.00137966 0 0 Z " fill="#00BBD8" transform="translate(400.59521484375,38.814697265625)"/>
<path d="M0 0 C18.04836971 -0.78299238 35.17210247 3.21756546 49.21289062 15.34863281 C50.80526668 16.90191617 52.36827512 18.48587965 53.90039062 20.09863281 C54.66996094 20.89785156 55.43953125 21.69707031 56.23242188 22.52050781 C68.85553856 36.71344991 76.14023908 57.28401956 75.21679688 76.34863281 C72.54304412 99.58717532 63.66618046 119.00824974 45.32226562 134.23925781 C42.90592121 135.9869283 40.46280936 137.57436444 37.90039062 139.09863281 C37.18109375 139.53433594 36.46179688 139.97003906 35.72070312 140.41894531 C30.17260447 143.47135945 24.28217848 145.41645613 18.27539062 147.34863281 C17.07571655 147.73643921 17.07571655 147.73643921 15.85180664 148.13208008 C-3.79527283 154.21336724 -23.36022286 150.43428741 -41.33398438 141.05175781 C-41.91664063 140.73722656 -42.49929688 140.42269531 -43.09960938 140.09863281 C-43.09960938 139.43863281 -43.09960938 138.77863281 -43.09960938 138.09863281 C-43.83695312 137.83179688 -44.57429688 137.56496094 -45.33398438 137.29003906 C-60.78128392 130.63548205 -71.46424692 114.55553613 -77.47460938 99.47363281 C-84.37801533 80.8226438 -83.89944566 58.95618395 -75.64257812 40.91503906 C-71.60533435 33.0551898 -71.60533435 33.0551898 -67.09960938 31.09863281 C-66.41474212 29.77455613 -65.75090735 28.43954041 -65.09960938 27.09863281 C-49.69930702 10.37830455 -28.25856117 1.48593569 -5.67773438 0.23144531 C-3.78488795 0.16118682 -1.89206333 0.08888298 0 0 Z " fill="#010101" transform="translate(484.099609375,339.9013671875)"/>
<path d="M0 0 C0.73347656 0.48984375 1.46695313 0.9796875 2.22265625 1.484375 C11.71759786 8.32464168 18.48454397 17.78804959 24 28 C24.5053125 28.90363281 25.010625 29.80726563 25.53125 30.73828125 C27.3239891 34.71949706 28.2361901 38.61582298 29.125 42.875 C29.29386719 43.63941406 29.46273437 44.40382813 29.63671875 45.19140625 C34.02527226 65.54461899 32.81557626 84.92925458 22 103 C19.84752605 106.18255178 17.51073978 109.09541868 15 112 C14.41863281 112.73605469 13.83726562 113.47210938 13.23828125 114.23046875 C5.16775399 124.06060783 -4.90215374 130.3277724 -17 134 C-17.72316406 134.28488281 -18.44632812 134.56976563 -19.19140625 134.86328125 C-25.32984877 137.24856923 -31.39240965 137.70640671 -37.94140625 137.92382812 C-39.37177948 137.97675465 -40.80157372 138.04702753 -42.23046875 138.13085938 C-59.14937593 139.10858517 -72.23419039 135.23509764 -86 125 C-87.05960938 124.23171875 -88.11921875 123.4634375 -89.2109375 122.671875 C-101.54511258 113.2892527 -110.97714537 99.46296908 -113.65283203 83.99804688 C-114.44399991 77.16573913 -114.51539067 70.30761058 -114.5625 63.4375 C-114.57162415 62.69736664 -114.58074829 61.95723328 -114.59014893 61.19467163 C-114.73853569 42.76743261 -111.20208445 24.68787543 -98 11 C-97.34 11 -96.68 11 -96 11 C-96 10.34 -96 9.68 -96 9 C-71.69955886 -11.5261173 -27.20768266 -18.45667362 0 0 Z " fill="#010101" transform="translate(315,357)"/>
<path d="M0 0 C2.56023331 0.113657 5.12065756 0.22193355 7.68115234 0.32952881 C19.61305758 0.83696273 31.53874063 1.43612177 43.46240234 2.10931396 C44.5287793 2.16925537 44.5287793 2.16925537 45.61669922 2.23040771 C54.90678162 2.75675799 64.18569997 3.3853538 73.46240234 4.10931396 C74.63077637 4.19761475 75.79915039 4.28591553 77.00292969 4.37689209 C125.73069933 8.19449026 173.25255377 20.12989838 220.27490234 32.92181396 C220.96909271 33.11063141 221.66328308 33.29944885 222.37850952 33.49398804 C225.60440081 34.37305098 228.82726161 35.26060179 232.046875 36.16253662 C234.2220262 36.76548418 236.40365874 37.34583932 238.59277344 37.89593506 C239.50236816 38.13521729 240.41196289 38.37449951 241.34912109 38.62103271 C242.51834106 38.91240112 242.51834106 38.91240112 243.71118164 39.20965576 C245.46240234 40.10931396 245.46240234 40.10931396 246.21948242 42.20233154 C246.299646 42.83163574 246.37980957 43.46093994 246.46240234 44.10931396 C238.52361584 48.69313418 230.2522004 51.18777431 221.46777344 53.56585693 C219.72922595 54.03700457 217.99569319 54.52658287 216.26318359 55.01947021 C209.30248259 56.90921032 202.3747282 57.86851282 195.22412109 58.67962646 C192.88442967 58.94688094 190.54807542 59.24844917 188.2199707 59.60272217 C184.3421335 60.1255285 180.4831783 60.42575212 176.57958984 60.64447021 C175.84346466 60.68744736 175.10733948 60.7304245 174.34890747 60.77470398 C172.79763194 60.86437694 171.2462681 60.95253397 169.69482422 61.03924561 C167.36443109 61.17029402 165.03453367 61.30842355 162.70458984 61.44720459 C138.00187567 62.87905063 138.00187567 62.87905063 134.46240234 61.10931396 C133.83925424 58.95930533 133.28929165 56.78790395 132.77490234 54.60931396 C131.13865972 48.51228821 129.04310576 44.46421778 124.85302734 39.78118896 C123.46240234 38.10931396 123.46240234 38.10931396 123.46240234 36.10931396 C122.80240234 36.10931396 122.14240234 36.10931396 121.46240234 36.10931396 C121.46240234 35.44931396 121.46240234 34.78931396 121.46240234 34.10931396 C120.57875 33.67232178 120.57875 33.67232178 119.67724609 33.22650146 C117.77385087 32.26641146 115.8964238 31.25514385 114.02490234 30.23431396 C105.08939385 25.81620143 96.07089914 23.70992202 86.14208984 23.28509521 C83.46240234 23.10931396 83.46240234 23.10931396 80.46240234 22.10931396 C66.66185066 20.6204481 52.69499243 20.95331211 38.83740234 20.98431396 C37.65640961 20.98553253 36.47541687 20.9867511 35.25863647 20.98800659 C19.76001325 21.00671226 4.26840002 21.1382489 -11.22509766 21.54681396 C-11.99275452 21.56637146 -12.76041138 21.58592896 -13.55133057 21.6060791 C-19.86391654 21.77280855 -26.14904027 21.957977 -32.43457031 22.59783936 C-39.37467683 23.24999627 -46.32183641 23.39621301 -53.28647423 23.55487061 C-55.73240271 23.61063835 -58.17818408 23.67097505 -60.62397766 23.73236084 C-65.82425675 23.86204586 -71.02466605 23.98592165 -76.22509766 24.10931396 C-82.24416546 24.25266177 -88.26315942 24.39851659 -94.28205299 24.54901123 C-96.66118346 24.607456 -99.0403781 24.66222535 -101.41960144 24.71673584 C-108.52181874 24.88790381 -115.60380652 25.13694219 -122.69287109 25.60931396 C-130.41122612 26.12345244 -138.12210549 26.39772404 -145.85400391 26.60931396 C-147.24927255 26.64998597 -148.64453099 26.69100945 -150.03977966 26.73236084 C-155.87460558 26.90463671 -161.70961532 27.07026641 -167.54467773 27.23431396 C-171.14882886 27.3358904 -174.75285122 27.44133134 -178.35682487 27.54901123 C-180.3701666 27.60795731 -182.38363858 27.66239967 -184.39710999 27.71673584 C-190.20273893 27.89026041 -195.78969156 28.25564796 -201.53759766 29.10931396 C-205.45171893 29.34391571 -209.36844311 29.45647965 -213.28759766 29.57415771 C-215.61182313 29.65273506 -217.93604167 29.73151776 -220.26025391 29.81048584 C-223.8889159 29.92948641 -227.51762045 30.04619365 -231.14648438 30.15887451 C-250.41819474 30.76102376 -250.41819474 30.76102376 -269.53759766 33.10931396 C-270.33182129 33.22863281 -271.12604492 33.34795166 -271.94433594 33.47088623 C-280.48312196 34.76956475 -288.30574646 36.84421705 -296.38916016 39.94134521 C-299.02910524 40.92067968 -301.55821504 41.64008538 -304.28759766 42.29681396 C-309.50203687 43.80282062 -314.11460721 46.38546547 -318.85009766 48.98431396 C-319.62772461 49.40736816 -320.40535156 49.83042236 -321.20654297 50.26629639 C-325.64016836 52.76656566 -329.04976192 55.34120571 -332.53759766 59.10931396 C-333.75903941 60.09810014 -334.98781532 61.07792259 -336.22509766 62.04681396 C-342.64921474 67.56715793 -347.45362408 75.1381907 -351.89331055 82.2946167 C-353.53759766 84.10931396 -353.53759766 84.10931396 -355.62792969 84.50335693 C-356.42569824 84.45324463 -357.2234668 84.40313232 -358.04541016 84.35150146 C-358.94122803 84.30388672 -359.8370459 84.25627197 -360.76000977 84.20721436 C-361.71786377 84.13365723 -362.67571777 84.0601001 -363.66259766 83.98431396 C-365.14288452 83.89234741 -365.14288452 83.89234741 -366.65307617 83.79852295 C-376.56656683 83.13922575 -386.37751194 81.95289258 -396.21728516 80.60540771 C-403.21585179 79.64968947 -410.19344803 78.83451096 -417.22509766 78.17181396 C-424.37614197 77.48469309 -431.48998689 76.63891133 -438.60009766 75.60931396 C-439.45112061 75.49080078 -440.30214355 75.3722876 -441.17895508 75.25018311 C-441.96890869 75.13150879 -442.7588623 75.01283447 -443.57275391 74.89056396 C-444.61508179 74.73684326 -444.61508179 74.73684326 -445.6784668 74.58001709 C-447.53759766 74.10931396 -447.53759766 74.10931396 -450.53759766 72.10931396 C-449.96728516 70.29290771 -449.96728516 70.29290771 -448.53759766 68.10931396 C-446.22616688 66.95359858 -444.07936955 66.03460153 -441.66259766 65.17181396 C-440.42767578 64.70904053 -439.19275391 64.24626709 -437.92041016 63.76947021 C-437.23422607 63.51447754 -436.54804199 63.25948486 -435.84106445 62.99676514 C-433.20413401 61.98084122 -430.60563504 60.88848834 -428.00244141 59.78900146 C-401.427442 48.64861816 -374.38392473 39.93964392 -346.46875 32.86273193 C-342.99817915 31.97066283 -339.55076752 31.01268091 -336.10009766 30.04681396 C-312.77474042 23.79076439 -288.93703032 19.7022088 -265.00878906 16.64202881 C-258.0862514 15.75044077 -251.19697114 14.75353747 -244.30712891 13.64056396 C-234.59665435 12.07957503 -224.8635066 10.79031304 -215.10009766 9.60931396 C-213.77277618 9.44873505 -213.77277618 9.44873505 -212.41864014 9.28491211 C-174.5650138 4.73883807 -136.61753559 2.77047971 -98.53759766 1.10931396 C-97.23914917 1.05261536 -95.94070068 0.99591675 -94.60290527 0.9375 C-63.02998354 -0.42434032 -31.58289265 -1.40519824 0 0 Z " fill="#FDCC1F" transform="translate(484.53759765625,262.89068603515625)"/>
<path d="M0 0 C1.02158203 0.00966797 2.04316406 0.01933594 3.09570312 0.02929688 C4.67834961 0.06700195 4.67834961 0.06700195 6.29296875 0.10546875 C7.90461914 0.12577148 7.90461914 0.12577148 9.54882812 0.14648438 C12.1932233 0.18174298 14.83658623 0.23102509 17.48046875 0.29296875 C29.93825731 37.66633443 21.33634018 94.26761933 13.06835938 131.5859375 C12.54775393 133.98314397 12.0723413 136.38195526 11.62109375 138.79296875 C9.71452751 148.64736198 6.71822482 158.09922265 3.54296875 167.60546875 C3.33177399 168.23786469 3.12057922 168.87026062 2.90298462 169.52182007 C-1.5036555 182.64743281 -6.35390318 195.39179558 -12.39453125 207.85546875 C-12.88566406 208.88865234 -13.37679687 209.92183594 -13.8828125 210.98632812 C-19.46879928 222.58631886 -26.0853715 233.45359631 -33.20703125 244.16796875 C-33.89676025 245.20646973 -34.58648926 246.2449707 -35.29711914 247.31494141 C-40.21145408 254.60439628 -45.44853606 261.37813196 -51.359375 267.87890625 C-53.52659054 270.0877848 -53.52659054 270.0877848 -54.51953125 272.29296875 C-55.17953125 272.29296875 -55.83953125 272.29296875 -56.51953125 272.29296875 C-56.77734375 272.8653125 -57.03515625 273.43765625 -57.30078125 274.02734375 C-58.63319067 276.5042587 -60.17009243 278.42708535 -62.01953125 280.54296875 C-62.62796875 281.249375 -63.23640625 281.95578125 -63.86328125 282.68359375 C-65.51953125 284.29296875 -65.51953125 284.29296875 -67.51953125 284.29296875 C-67.72578125 285.01484375 -67.93203125 285.73671875 -68.14453125 286.48046875 C-69.58670967 289.43037916 -71.17755694 290.92633924 -73.7890625 292.88671875 C-75.67175555 294.36702694 -75.67175555 294.36702694 -77.78515625 296.5625 C-87.49064625 306.25412501 -98.24758193 314.52968993 -109.51953125 322.29296875 C-110.75703125 323.19402344 -110.75703125 323.19402344 -112.01953125 324.11328125 C-119.22064102 329.34381706 -126.9075552 333.71966767 -134.60009766 338.17529297 C-136.98480635 339.56389592 -139.34768592 340.98676257 -141.70703125 342.41796875 C-143.31031606 343.37777669 -144.91454656 344.33600605 -146.51953125 345.29296875 C-148.07994141 346.23076172 -148.07994141 346.23076172 -149.671875 347.1875 C-156.34302324 351.1384761 -163.07423318 354.55798793 -170.21435547 357.58007812 C-175.47882214 359.81067814 -180.62384969 362.23944415 -185.76953125 364.73046875 C-194.85924694 369.10446728 -204.14316888 372.89764403 -213.55371094 376.52294922 C-215.16279898 377.15323532 -216.75429742 377.82826212 -218.33984375 378.515625 C-220.51953125 379.29296875 -220.51953125 379.29296875 -224.51953125 379.29296875 C-225.23139431 372.76755737 -223.92859197 369.57968309 -220.125 364.2734375 C-218.66673005 362.47454975 -217.26813286 360.81161727 -215.51953125 359.29296875 C-214.85953125 359.29296875 -214.19953125 359.29296875 -213.51953125 359.29296875 C-213.27203125 358.77734375 -213.02453125 358.26171875 -212.76953125 357.73046875 C-211.45986338 355.1766164 -210.08043972 352.67479401 -208.62011719 350.20385742 C-207.50462535 348.32221529 -207.50462535 348.32221529 -206.61425781 346.4074707 C-203.07015949 339.64866073 -197.72777237 337.06407309 -191.08203125 333.73046875 C-190.00614746 333.1689209 -188.93026367 332.60737305 -187.82177734 332.02880859 C-181.07922033 328.5260893 -174.25875747 325.18551004 -167.43359375 321.84765625 C-163.64670818 319.82730711 -160.22505136 317.45135362 -156.80078125 314.87109375 C-154.51953125 313.29296875 -154.51953125 313.29296875 -151.5703125 311.82421875 C-148.52253574 310.29447677 -145.94421918 308.57051537 -143.20703125 306.54296875 C-142.25441406 305.83785156 -141.30179688 305.13273437 -140.3203125 304.40625 C-136.3517714 301.41185567 -132.42738082 298.36592766 -128.51953125 295.29296875 C-127.04077515 294.14660561 -125.5616042 293.00077741 -124.08203125 291.85546875 C-116.61764502 286.03973826 -109.270571 280.20464852 -102.33203125 273.76171875 C-100.51953125 272.29296875 -100.51953125 272.29296875 -98.51953125 272.29296875 C-98.29265625 271.73609375 -98.06578125 271.17921875 -97.83203125 270.60546875 C-95.56352676 266.60857989 -92.90053179 263.75330226 -88.51953125 262.29296875 C-87.84299748 260.96461478 -87.17898595 259.62988375 -86.51953125 258.29296875 C-84.77836637 256.21508272 -83.01336673 254.18723802 -81.20703125 252.16796875 C-70.42028009 239.83460599 -61.03088767 226.28235984 -52.51953125 212.29296875 C-52.09462402 211.59655273 -51.6697168 210.90013672 -51.23193359 210.18261719 C-39.77251859 191.25540781 -29.82105437 171.51675093 -24.01953125 150.10546875 C-23.71619873 148.9976001 -23.41286621 147.88973145 -23.1003418 146.74829102 C-22.50273421 144.56292366 -21.90719438 142.37698955 -21.31396484 140.19042969 C-20.67085642 137.84488244 -20.00741224 135.50866853 -19.3203125 133.17578125 C-9.66021572 99.49908022 -7.78798028 63.02955962 -10.27734375 28.25390625 C-10.58867585 23.16212004 -10.78748176 18.08042745 -10.89453125 12.98046875 C-10.93255859 12.06531494 -10.97058594 11.15016113 -11.00976562 10.20727539 C-11.02072266 9.35254639 -11.03167969 8.49781738 -11.04296875 7.6171875 C-11.06278809 6.85494873 -11.08260742 6.09270996 -11.10302734 5.30737305 C-10.51953125 3.29296875 -10.51953125 3.29296875 -8.33178711 1.54101562 C-5.27699266 0.18533291 -3.32190743 -0.05567443 0 0 Z " fill="#00BBD8" transform="translate(702.51953125,332.70703125)"/>
<path d="M0 0 C6.89295489 -0.11749355 13.74517767 0.02698524 20.625 0.4375 C21.67300781 0.49635376 21.67300781 0.49635376 22.7421875 0.55639648 C27.75549279 0.87774639 27.75549279 0.87774639 30 2 C30.00364563 2.64526138 30.00729126 3.29052277 30.01104736 3.95533752 C30.07157069 47.16164686 30.07157069 47.16164686 35 90 C35.35015337 92.12740782 35.69913046 94.25500961 36.046875 96.3828125 C37.52836445 105.13936076 39.3486001 113.52090777 42 122 C42.62405307 124.08023273 43.24635749 126.1609906 43.8671875 128.2421875 C44.53601684 130.4532586 45.20529394 132.66419429 45.875 134.875 C46.20113281 135.96941406 46.52726562 137.06382812 46.86328125 138.19140625 C48.85932873 144.75428611 51.1537357 151.06823745 53.87426758 157.36645508 C54.92597677 159.82682964 55.88443534 162.30338031 56.8125 164.8125 C60.89833433 175.07651123 66.74453155 184.73348048 72.359375 194.21875 C73.54764085 196.23314354 74.69496982 198.27186951 75.81640625 200.32421875 C78.25121567 204.59065568 81.18658092 208.43200118 84.1875 212.3125 C84.76338867 213.06160645 85.33927734 213.81071289 85.93261719 214.58251953 C89.73091414 219.47920855 93.68592291 224.15789007 97.91015625 228.6953125 C100.12042377 231.13280379 102.14824825 233.66819503 104.1875 236.25 C112.13752496 246.04854475 121.15311897 255.03928413 131.3046875 262.546875 C131.86414063 263.02640625 132.42359375 263.5059375 133 264 C133 264.66 133 265.32 133 266 C133.5775 266.268125 134.155 266.53625 134.75 266.8125 C137.77218796 268.40754365 140.31382547 270.46392615 143 272.5625 C144.93283088 273.9517222 146.84484357 274.99939166 149 276 C149 276.66 149 277.32 149 278 C149.55429688 278.25265625 150.10859375 278.5053125 150.6796875 278.765625 C153.37522004 280.19961201 155.68494415 281.91462271 158.125 283.75 C168.14944033 291.09333178 178.87464266 296.55429354 190 302 C190.66 302.33 191.32 302.66 192 303 C192 303.66 192 304.32 192 305 C192.70253906 305.10699219 193.40507812 305.21398437 194.12890625 305.32421875 C200.6117219 306.85010597 206.969225 310.47632064 212.4375 314.25 C214.85607759 316.05116105 214.85607759 316.05116105 217.31640625 316.8671875 C220.41373951 318.17464987 222.80499967 319.8688902 225.5 321.875 C226.87671875 322.89207031 226.87671875 322.89207031 228.28125 323.9296875 C232.83518394 327.39748202 236.95328956 330.95328956 241 335 C241.99 335.78375 242.98 336.5675 244 337.375 C247.41575838 340.36378858 249.55471515 343.18823244 252 347 C252 347.66 252 348.32 252 349 C252.66 349 253.32 349 254 349 C255.36623674 351.73247348 255.128426 353.98198902 255 357 C254 358 254 358 251.59765625 358.296875 C246.5066344 357.87676896 242.17872338 356.07968432 237.4375 354.25 C235.45926168 353.50663935 233.48009751 352.76573777 231.5 352.02734375 C230.54996094 351.67269043 229.59992188 351.31803711 228.62109375 350.95263672 C225.41859722 349.78868912 222.20525791 348.77760987 218.9375 347.8125 C209.33097816 344.96193731 200.09708035 341.17973962 191 337 C190.154375 336.62875 189.30875 336.2575 188.4375 335.875 C180.52500701 332.33963079 172.82560629 328.40958483 165.125 324.4375 C164.04283203 323.88328369 162.96066406 323.32906738 161.84570312 322.75805664 C156.22109708 319.83547577 151.08986533 316.76714873 146 313 C144.28976547 312.04847859 142.56136609 311.12850017 140.8125 310.25 C134.36374995 306.80128237 128.7543539 302.48767222 123 298 C121.91387354 297.17041563 120.82661772 296.34230792 119.73828125 295.515625 C112.70011203 290.15995304 105.80122197 284.6550701 99 279 C97.89205078 278.09701172 97.89205078 278.09701172 96.76171875 277.17578125 C95.13538587 275.82973821 93.56052567 274.42181227 92 273 C92 272.34 92 271.68 92 271 C91.4121875 270.74992187 90.824375 270.49984375 90.21875 270.2421875 C87.70658898 268.83573115 86.33354648 267.33359008 84.5 265.125 C82.58164296 262.84359904 80.72900907 260.74290604 78.5625 258.6875 C77 257 77 257 77 254 C75.02 253.01 75.02 253.01 73 252 C73 251.01 73 250.02 73 249 C72.39671875 248.74089844 71.7934375 248.48179687 71.171875 248.21484375 C68.7999184 246.88808385 67.80693619 245.76510679 66.25 243.5625 C65.74210937 242.85351562 65.23421875 242.14453125 64.7109375 241.4140625 C64.14632812 240.61742187 63.58171875 239.82078125 63 239 C62.33226562 238.10023438 61.66453125 237.20046875 60.9765625 236.2734375 C57.31221618 231.32861328 53.99533699 226.37795877 51 221 C50.30851033 219.79227018 49.61578393 218.58524769 48.921875 217.37890625 C39.18215245 200.31544725 29.7888666 182.6624023 23.921875 163.84375 C22.97498711 160.92284161 21.89786015 158.06342036 20.81201172 155.19189453 C11.79255302 130.845322 6.9350331 105.69980718 3.43896484 80.04370117 C2.99777979 76.98460547 2.48836424 73.94375151 1.9609375 70.8984375 C-0.87564997 54.09384715 -1.18873427 37.12482195 -1.1875 20.125 C-1.18840637 19.29606232 -1.18931274 18.46712463 -1.19024658 17.61306763 C-1.18995281 15.2445585 -1.18105949 12.87628242 -1.16796875 10.5078125 C-1.16676529 9.79327408 -1.16556183 9.07873566 -1.1643219 8.34254456 C-1.13525579 5.28892723 -0.97355901 2.92067702 0 0 Z " fill="#00BBD8" transform="translate(39,356)"/>
<path d="M0 0 C3.78500518 4.728664 5.75247772 8.9357041 6 15 C4.22063439 16.77936561 1.84212163 16.14689717 -0.52755737 16.16127014 C-1.69340866 16.15685158 -1.69340866 16.15685158 -2.8828125 16.15234375 C-3.68897003 16.15040512 -4.49512756 16.14846649 -5.32571411 16.14646912 C-13.40476456 16.07615574 -21.41398482 15.48222565 -29.45864868 14.77484131 C-33.59743416 14.41113794 -37.73818221 14.07127329 -41.87890625 13.73046875 C-42.67961044 13.66410217 -43.48031464 13.5977356 -44.30528259 13.52935791 C-51.20680962 12.96503049 -58.10893728 12.55271778 -65.02880859 12.29125977 C-68.44194873 12.1577374 -71.80587541 11.92399386 -75.19384766 11.5065918 C-79.73902884 10.99204408 -84.24544337 10.78371225 -88.81640625 10.68359375 C-90.06531143 10.65228615 -90.06531143 10.65228615 -91.33944702 10.62034607 C-94.08037185 10.55406107 -96.82137665 10.49496118 -99.5625 10.4375 C-100.51939728 10.41665344 -101.47629456 10.39580688 -102.46218872 10.37432861 C-133.93483865 9.70222248 -165.40301576 9.76648321 -196.875 10.4375 C-198.30378983 10.46683624 -198.30378983 10.46683624 -199.76144409 10.49676514 C-202.46350157 10.5540584 -205.16533186 10.61751987 -207.8671875 10.68359375 C-208.64738754 10.70031631 -209.42758759 10.71703888 -210.23143005 10.73426819 C-215.0131287 10.86184675 -219.71970416 11.25419309 -224.47540283 11.75944519 C-228.64227507 12.15648325 -232.81445807 12.30671001 -236.99609375 12.46484375 C-238.87305847 12.5433431 -240.75001127 12.62212788 -242.62695312 12.70117188 C-245.53382378 12.82056515 -248.44073253 12.93762446 -251.34790039 13.04956055 C-265.11908812 13.50726482 -265.11908812 13.50726482 -278.72290039 15.53393555 C-282.61393952 16.33033243 -286.54685022 16.60784027 -290.5 16.9375 C-309.69663151 18.66698896 -328.81250845 20.92786282 -347.91186523 23.51245117 C-380.91570862 27.97266216 -380.91570862 27.97266216 -395.10546875 28.8125 C-398.78983443 29.05116336 -402.44528574 29.4651509 -406.109375 29.9140625 C-408 30 -408 30 -410 29 C-409.521671 23.97754554 -408.16310458 20.9325084 -405 17 C-392.10940557 6.36525959 -375.05878376 5.87356906 -359.18847656 4.6965332 C-358.17624023 4.62007568 -357.16400391 4.54361816 -356.12109375 4.46484375 C-355.2077124 4.399021 -354.29433105 4.33319824 -353.35327148 4.26538086 C-350.85071677 4.06575327 -350.85071677 4.06575327 -348 3 C-346.17955844 2.79617566 -344.35418077 2.63497534 -342.52734375 2.5 C-340.93116211 2.37625 -340.93116211 2.37625 -339.30273438 2.25 C-337.05535996 2.08304473 -334.80796402 1.91637906 -332.56054688 1.75 C-331.49771484 1.6675 -330.43488281 1.585 -329.33984375 1.5 C-328.36394287 1.4278125 -327.38804199 1.355625 -326.38256836 1.28125 C-323.98753009 1.13512979 -323.98753009 1.13512979 -322 0 C-320.30938602 -0.20901345 -318.61241324 -0.36783722 -316.9140625 -0.5 C-315.39425781 -0.62375 -315.39425781 -0.62375 -313.84375 -0.75 C-312.7815625 -0.8325 -311.719375 -0.915 -310.625 -1 C-308.5336143 -1.1636292 -306.44245473 -1.33018134 -304.3515625 -1.5 C-303.42166504 -1.5721875 -302.49176758 -1.644375 -301.53369141 -1.71875 C-299.08248396 -1.92942001 -299.08248396 -1.92942001 -297.07983398 -2.5 C-294.18631176 -3.19561375 -291.34018585 -3.31757481 -288.37109375 -3.5 C-286.44813477 -3.62375 -286.44813477 -3.62375 -284.48632812 -3.75 C-282.45652288 -3.87601677 -280.42663744 -4.00066535 -278.39672852 -4.125 C-276.42964573 -4.24673896 -274.46286344 -4.37330321 -272.49609375 -4.5 C-271.32232178 -4.5721875 -270.1485498 -4.644375 -268.93920898 -4.71875 C-265.94220272 -4.89458571 -265.94220272 -4.89458571 -263 -6 C-260.5504576 -6.20936881 -258.1179249 -6.37405264 -255.6640625 -6.5 C-254.94769623 -6.54060547 -254.23132996 -6.58121094 -253.49325562 -6.62304688 C-251.20403469 -6.75260133 -248.91457451 -6.87686322 -246.625 -7 C-244.34258016 -7.12332197 -242.06027206 -7.24791728 -239.77816772 -7.37695312 C-238.35926756 -7.45716576 -236.94017986 -7.53414639 -235.52090454 -7.60742188 C-232.82814171 -7.75947201 -230.22440411 -7.95362934 -227.58032227 -8.5 C-223.77810873 -9.23677106 -219.97721661 -9.33250451 -216.11328125 -9.5 C-215.25623093 -9.54060547 -214.3991806 -9.58121094 -213.51615906 -9.62304688 C-210.78175924 -9.75228371 -208.04716829 -9.87658438 -205.3125 -10 C-202.59570772 -10.12380931 -199.87899023 -10.24879824 -197.16239929 -10.37695312 C-195.47617038 -10.45640012 -193.78982354 -10.53339968 -192.10334778 -10.60742188 C-187.13632348 -10.8401958 -182.21394052 -11.25744945 -177.26875305 -11.77487183 C-30.14199704 -26.37424741 -30.14199704 -26.37424741 0 0 Z " fill="#FB0111" transform="translate(578,238)"/>
<path d="M0 0 C3.3910834 0.32296032 6.0423528 1.01864359 9.16796875 2.39453125 C31.51959941 12.15576071 58.9345725 13.63487583 83 14 C83.77553223 14.01514648 84.55106445 14.03029297 85.35009766 14.04589844 C90.21505955 14.13079456 95.07342966 14.11420806 99.93847656 14.04150391 C102.18771836 14.01101179 104.43711492 13.99143441 106.68652344 13.97802734 C124.44536619 13.86723035 141.17486202 12.79543893 158.52832031 8.59472656 C160.6430933 8.08587759 162.76991891 7.62757217 164.8984375 7.1796875 C172.07665128 5.66756983 178.88453581 3.44296156 185.78515625 0.98828125 C189 0 189 0 193 0 C195.16336515 4.3267303 193.9530546 9.43614577 193 14 C186.70072526 31.65969091 174.57049529 42.47731766 158.375 51.1875 C146.4401504 56.82514606 134.0391968 60.43066563 120.87451172 61.41894531 C116.66370692 61.73424915 116.66370692 61.73424915 112.67016602 63.01196289 C109.47092631 64.19577226 106.92703402 64.24291291 103.51953125 64.23046875 C102.27236328 64.22853516 101.02519531 64.22660156 99.74023438 64.22460938 C98.44408203 64.21236328 97.14792969 64.20011719 95.8125 64.1875 C94.53568359 64.18685547 93.25886719 64.18621094 91.94335938 64.18554688 C81.22481033 64.13594948 71.55989012 63.5285445 61.3125 60.3125 C60.44818359 60.0455835 59.58386719 59.77866699 58.69335938 59.50366211 C44.30223525 54.97386168 29.02769493 49.72137007 18 39 C18 38.34 18 37.68 18 37 C17.071875 36.6596875 17.071875 36.6596875 16.125 36.3125 C13.3780195 34.61583557 13.13364727 32.94748289 12 30 C11.01 29.67 10.02 29.34 9 29 C7.51864725 26.62103548 6.20817993 24.29963789 4.9375 21.8125 C4.58623047 21.15185547 4.23496094 20.49121094 3.87304688 19.81054688 C0.59855943 13.54012006 -1.42416453 8.21079707 -1 1 C-0.67 0.67 -0.34 0.34 0 0 Z " fill="#FEFEFE" transform="translate(286,660)"/>
<path d="M0 0 C5.75376752 -0.41498908 9.44893734 1.78999619 13.75390625 5.29296875 C18.84248701 9.98219254 20.6441679 15.47162304 21.16015625 22.2734375 C21.59832582 34.184066 19.20847133 42.82140162 10.87890625 51.79296875 C7.18222251 55.19985511 3.37575664 57.38394359 -1.24609375 59.29296875 C-2.05046875 59.70546875 -2.85484375 60.11796875 -3.68359375 60.54296875 C-9.71013454 62.30683435 -14.72454004 61.84425238 -20.43359375 59.23046875 C-29.70266668 54.11451532 -34.013515 45.76741484 -36.99609375 35.91796875 C-38.91781688 28.24169348 -39.67381952 21.15728593 -35.55078125 14.10546875 C-28.90322307 4.87053763 -18.63988292 2.99449488 -7.93359375 1.04296875 C-5.29185834 0.66458615 -2.64603095 0.34513447 0 0 Z " fill="#030303" transform="translate(386.24609375,478.70703125)"/>
<path d="M0 0 C0.75042068 0.04863693 1.50084137 0.09727386 2.27400208 0.14738464 C4.66962611 0.3060787 7.06301748 0.48673137 9.45703125 0.66796875 C11.08128134 0.77944482 12.70563043 0.88948838 14.33007812 0.99804688 C18.31123503 1.2672476 22.29052994 1.55615076 26.26953125 1.85546875 C27.81426008 7.81674458 28.84015302 13.54222451 29.45703125 19.66796875 C29.55177734 20.51294922 29.64652344 21.35792969 29.74414062 22.22851562 C29.87079102 23.44571289 29.87079102 23.44571289 30 24.6875 C30.07629639 25.41686768 30.15259277 26.14623535 30.23120117 26.89770508 C30.26953125 28.85546875 30.26953125 28.85546875 29.26953125 31.85546875 C25.89435456 33.5430571 22.07097526 32.99700233 18.359375 32.98828125 C17.47673477 32.98923798 16.59409454 32.9901947 15.68470764 32.99118042 C13.81771778 32.99186144 11.95072556 32.9900126 10.08374023 32.98583984 C7.21527837 32.98048415 4.34697264 32.98579074 1.47851562 32.9921875 C-0.3320316 32.99152683 -2.14257872 32.9902459 -3.953125 32.98828125 C-4.81664078 32.99030548 -5.68015656 32.99232971 -6.56983948 32.99441528 C-12.61551436 32.97042314 -12.61551436 32.97042314 -13.73046875 31.85546875 C-14.08944311 25.39393029 -14.08944311 25.39393029 -11.73046875 21.85546875 C-11.41402756 19.77970222 -11.41402756 19.77970222 -11.421875 17.51171875 C-11.39673828 16.67769531 -11.37160156 15.84367188 -11.34570312 14.984375 C-11.31054836 13.23184481 -11.27929789 11.47923195 -11.25195312 9.7265625 C-11.22552734 8.89253906 -11.19910156 8.05851563 -11.171875 7.19921875 C-11.15169312 6.05743164 -11.15169312 6.05743164 -11.13110352 4.89257812 C-10.73046875 2.85546875 -10.73046875 2.85546875 -9.68603516 1.07495117 C-6.59946991 -0.84981704 -3.4883053 -0.28372737 0 0 Z " fill="#FDFDFD" transform="translate(372.73046875,627.14453125)"/>
<path d="M0 0 C20.70943005 -0.66093926 20.70943005 -0.66093926 25.71484375 3.38671875 C30.42069898 9.29406894 29.62055422 15.79868472 29 23 C28.00837907 26.54396699 26.71429735 29.74742691 25 33 C18.57247224 34.15784565 13.46940393 33.66862448 7.125 32.25 C6.27164062 32.07984375 5.41828125 31.9096875 4.5390625 31.734375 C-1.7453048 30.3820428 -1.7453048 30.3820428 -4 27 C-4.25122975 24.26276428 -4.37973281 21.67513555 -4.375 18.9375 C-4.37628906 18.17832275 -4.37757813 17.41914551 -4.37890625 16.63696289 C-4.2634578 10.4755576 -2.99305529 5.43827456 0 0 Z " fill="#FEFEFE" transform="translate(318,622)"/>
<path d="M0 0 C2.43074273 2.43074273 1.9924315 8.1912984 2.40234375 11.484375 C2.85727245 14.925248 2.85727245 14.925248 4.08984375 17.68359375 C5.53320404 21.3570386 4.65047267 24.16221126 4 28 C3.0821875 28.19335938 2.164375 28.38671875 1.21875 28.5859375 C-6.67536046 30.24007705 -6.67536046 30.24007705 -14.5 32.1875 C-17.8585306 32.96715889 -20.57492502 33.40774702 -24 33 C-26.38094585 29.42858123 -26.24558937 27.85273884 -26.23046875 23.6171875 C-26.22853516 22.36808594 -26.22660156 21.11898437 -26.22460938 19.83203125 C-26.21236328 18.52621094 -26.20011719 17.22039063 -26.1875 15.875 C-26.18685547 14.56144531 -26.18621094 13.24789062 -26.18554688 11.89453125 C-26.14015422 2.14015422 -26.14015422 2.14015422 -25 1 C-21.58376658 0.459374 -18.13033389 0.19812122 -14.6875 -0.125 C-13.72392578 -0.22425781 -12.76035156 -0.32351563 -11.76757812 -0.42578125 C-10.83751953 -0.51472656 -9.90746094 -0.60367188 -8.94921875 -0.6953125 C-8.09674561 -0.77797363 -7.24427246 -0.86063477 -6.3659668 -0.94580078 C-4.01229079 -0.99971844 -2.22728548 -0.73880992 0 0 Z " fill="#FEFEFE" transform="translate(444,622)"/>
<path d="M0 0 C0.74958984 -0.01224609 1.49917969 -0.02449219 2.27148438 -0.03710938 C6.11502228 -0.04741377 7.91460907 0.00557271 11.1875 2.1875 C12.41150575 9.08644151 12.57357278 16.19276965 12.1875 23.1875 C8.42295975 26.95204025 -2.67017881 25.29461461 -7.8125 25.3125 C-8.94365234 25.31938843 -8.94365234 25.31938843 -10.09765625 25.32641602 C-15.5656799 25.31091005 -15.5656799 25.31091005 -17.8125 24.1875 C-18.03564035 21.47966168 -18.24139462 18.77231976 -18.4375 16.0625 C-18.50195312 15.30195312 -18.56640625 14.54140625 -18.6328125 13.7578125 C-18.95581622 9.07425858 -18.66388316 5.61103381 -16.8125 1.1875 C-11.17329822 0.3891985 -5.69292952 0.00502465 0 0 Z " fill="#FDFDFD" transform="translate(382.8125,587.8125)"/>
<path d="M0 0 C7.44685968 -0.82742885 12.06282433 1.53265145 18 6 C21.75355535 13.5071107 20.28821991 25.18771632 17.984375 32.86328125 C16.95263472 35.10281273 15.85033574 36.39395016 14 38 C7.76857986 36.51171907 3.00307049 35.33742733 -1 30 C-4.83984634 23.37957528 -5.02790248 16.56014917 -3.35546875 9.140625 C-2.42817046 5.97958848 -1.47459565 2.9491913 0 0 Z " fill="#FDFDFD" transform="translate(280,608)"/>
<path d="M0 0 C1.67870879 5.03612637 1.22652738 10.2899631 1.25 15.5625 C1.270625 16.72458984 1.29125 17.88667969 1.3125 19.08398438 C1.31765625 20.19193359 1.3228125 21.29988281 1.328125 22.44140625 C1.34214355 23.96809937 1.34214355 23.96809937 1.35644531 25.52563477 C1.18000488 26.75044556 1.18000488 26.75044556 1 28 C-4.13326598 31.42217732 -9.89171713 32.44694753 -16 32 C-17.5703768 30.4296232 -17.53894045 28.59499179 -17.9375 26.4375 C-18.5437102 23.20437894 -19.24747843 20.08784257 -20.1875 16.9375 C-21.29279328 12.6215929 -21.26015452 8.28790833 -20 4 C-15.2093441 -1.84622415 -6.7717913 -2.25726377 0 0 Z " fill="#FDFDFD" transform="translate(483,610)"/>
<path d="M0 0 C1.9453125 0.4140625 1.9453125 0.4140625 4.9453125 2.4140625 C5.33349609 4.33764648 5.33349609 4.33764648 5.34375 6.66015625 C5.34955078 7.91602539 5.34955078 7.91602539 5.35546875 9.19726562 C5.34386719 10.07318359 5.33226562 10.94910156 5.3203125 11.8515625 C5.33191406 12.72361328 5.34351563 13.59566406 5.35546875 14.49414062 C5.35160156 15.33267578 5.34773438 16.17121094 5.34375 17.03515625 C5.33867432 18.18649048 5.33867432 18.18649048 5.33349609 19.36108398 C4.84540375 21.94244783 4.03278623 22.85685937 1.9453125 24.4140625 C-0.65625 24.33984375 -0.65625 24.33984375 -3.6796875 23.7265625 C-4.741875 23.51644531 -5.8040625 23.30632813 -6.8984375 23.08984375 C-8.46078125 22.75533203 -8.46078125 22.75533203 -10.0546875 22.4140625 C-10.951875 22.24261719 -11.8490625 22.07117188 -12.7734375 21.89453125 C-18.77197959 20.69677041 -18.77197959 20.69677041 -21.0546875 18.4140625 C-21.51723601 12.74784329 -21.29505136 5.39235036 -17.73828125 0.6640625 C-13.31540747 -2.6197417 -5.21286916 -0.50447121 0 0 Z " fill="#FCFCFC" transform="translate(345.0546875,584.5859375)"/>
<path d="M0 0 C7.48260887 -1.1783636 14.33840089 -0.84084885 20.64453125 3.515625 C23.07560093 6.17789151 22.99946487 8.99400654 23.3125 12.5 C23 16 23 16 21.625 18.1875 C14.9591914 22.79008213 8.97715977 24.23761752 1 24 C0.43893511 20.56537307 -0.09548247 17.1271202 -0.625 13.6875 C-0.78484375 12.71103516 -0.9446875 11.73457031 -1.109375 10.72851562 C-1.25117188 9.79072266 -1.39296875 8.85292969 -1.5390625 7.88671875 C-1.67521973 7.02264404 -1.81137695 6.15856934 -1.95166016 5.26831055 C-2 3 -2 3 0 0 Z " fill="#FDFDFD" transform="translate(412,584)"/>
<path d="M0 0 C3.6818159 2.30113494 4.95641661 5.3487808 6.25 9.40625 C6.54584324 12.17684546 6.44981388 14.60885564 6.25 17.40625 C5.404375 17.674375 4.55875 17.9425 3.6875 18.21875 C0.12133676 19.4506973 -3.29278494 20.89764706 -6.75 22.40625 C-8.4142135 23.07901716 -10.07986582 23.74831835 -11.75 24.40625 C-14.70671348 17.87684106 -15.10368021 12.53225133 -14.75 5.40625 C-12.86633147 4.34274337 -10.9674671 3.30611771 -9.0625 2.28125 C-8.00675781 1.70117188 -6.95101563 1.12109375 -5.86328125 0.5234375 C-2.75 -0.59375 -2.75 -0.59375 0 0 Z " fill="#FDFDFD" transform="translate(466.75,573.59375)"/>
<path d="M0 0 C1.46953125 -0.03867187 1.46953125 -0.03867187 2.96875 -0.078125 C3.8040625 0.03015625 4.639375 0.1384375 5.5 0.25 C7.90398587 3.8559788 7.76419216 5.2716975 7.0859375 9.37890625 C6.5 11.25 6.5 11.25 4.5625 13.1875 C0.33166171 14.65534185 -4.00588312 15.60038877 -8.5 15.25 C-10.27734375 13.97265625 -10.27734375 13.97265625 -11.5 12.25 C-11.9375 8.8125 -11.9375 8.8125 -11.5 5.25 C-8.03574255 0.86194056 -5.44100158 0.08591055 0 0 Z " fill="#FCFCFC" transform="translate(302.5,579.75)"/>
</svg>
