<?xml version="1.0" standalone="no"?>
<!DOCTYPE svg PUBLIC "-//W3C//DTD SVG 20010904//EN"
 "http://www.w3.org/TR/2001/REC-SVG-20010904/DTD/svg10.dtd">
<svg version="1.0" xmlns="http://www.w3.org/2000/svg"
 width="1280.000000pt" height="1280.000000pt" viewBox="0 0 1280.000000 1280.000000"
 preserveAspectRatio="xMidYMid meet">

<g transform="translate(0.000000,1280.000000) scale(0.100000,-0.100000)"
fill="#000000" stroke="none">
<path d="M6875 10333 c-264 -17 -427 -145 -480 -376 -13 -60 -15 -239 -15
-1453 0 -761 -3 -1384 -7 -1383 -5 0 -20 26 -35 57 -56 118 -165 198 -318 233
-40 10 -168 13 -455 14 l-400 0 -5 1225 -5 1225 -23 67 c-26 78 -37 99 -76
153 -66 91 -177 152 -316 173 -41 7 -616 12 -1535 14 -1611 3 -1521 6 -1660
-57 -117 -53 -190 -139 -237 -280 l-23 -70 0 -3000 c0 -2516 2 -3009 14 -3055
35 -141 119 -249 235 -304 146 -69 6 -65 2327 -65 2006 -1 2097 0 2165 18 101
26 158 57 222 121 56 56 97 130 122 222 15 56 25 55 33 -3 8 -63 63 -164 118
-218 62 -61 151 -104 257 -125 73 -14 209 -16 1170 -16 1144 0 1150 0 1317 45
402 108 778 468 1060 1013 20 39 41 72 45 72 5 0 10 -163 12 -362 4 -361 4
-363 30 -435 35 -99 69 -153 125 -203 204 -181 666 -169 838 22 56 62 86 119
111 213 18 68 19 135 19 1935 l0 1865 -27 77 c-15 42 -35 89 -45 105 -73 119
-201 195 -363 217 -25 4 -465 9 -979 11 -1031 6 -1028 6 -1156 -56 -121 -58
-215 -186 -246 -334 -15 -77 -15 -273 0 -350 37 -176 152 -312 307 -360 111
-35 162 -38 769 -44 l610 -6 3 -574 2 -574 -1162 6 c-640 4 -1286 7 -1436 7
l-272 0 2 1123 c2 617 4 1395 6 1730 l2 607 1169 0 c1219 0 1234 0 1346 41
154 56 250 165 300 339 26 89 26 269 0 360 -58 206 -153 314 -329 374 -61 20
-72 20 -1571 22 -830 0 -1532 -1 -1560 -3z m-2791 -1179 l46 -7 0 -853 0 -854
-860 0 -860 0 0 860 0 860 814 0 c447 0 834 -3 860 -6z m1204 -2869 c2 -1 0
-386 -4 -854 l-7 -851 -864 0 -863 0 0 860 0 860 868 -7 c477 -3 868 -7 870
-8z"/>
<path d="M3683 3248 c-31 -34 -33 -48 -43 -263 -4 -109 -12 -201 -17 -206 -4
-4 -39 -13 -77 -19 -130 -21 -284 -83 -313 -126 -8 -13 -17 -41 -20 -62 -4
-33 -1 -43 26 -69 58 -58 211 -75 389 -43 51 9 143 51 161 74 15 20 21 51 11
66 -8 12 -21 11 -97 -9 -130 -34 -313 -41 -313 -12 0 12 81 49 135 61 26 6 81
12 123 15 112 6 120 9 128 61 3 24 5 146 3 272 -4 197 -6 231 -22 255 -21 33
-47 34 -74 5z"/>
<path d="M1715 3250 c-33 -4 -96 -19 -139 -33 -52 -17 -85 -23 -95 -17 -20 10
-51 -5 -51 -25 0 -8 -23 -32 -51 -52 -47 -36 -50 -40 -47 -78 3 -45 14 -61 52
-71 14 -3 26 -11 26 -18 0 -6 2 -76 4 -156 2 -133 5 -150 30 -206 15 -34 27
-70 26 -80 -5 -48 1 -62 34 -78 31 -15 39 -15 95 0 34 8 95 31 137 50 41 19
82 34 90 34 7 0 14 5 14 10 0 6 6 10 14 10 27 0 117 81 137 124 l21 42 -26 52
c-28 55 -74 95 -147 127 -24 10 -46 20 -48 22 -2 1 14 22 37 47 52 56 69 91
78 153 14 108 -54 159 -191 143z m54 -152 c0 -7 -16 -26 -35 -41 -35 -29 -182
-117 -196 -117 -16 0 -8 88 10 109 33 41 223 83 221 49z m29 -348 c62 -27 59
-36 -28 -80 -131 -66 -227 -96 -218 -68 3 7 -1 33 -9 57 -7 24 -13 59 -13 77
0 29 3 33 33 37 70 11 183 -1 235 -23z"/>
<path d="M4343 3220 c-129 -44 -201 -88 -283 -170 -104 -103 -149 -202 -150
-326 0 -128 57 -214 184 -276 90 -43 126 -45 256 -15 62 15 239 84 250 97 3 3
26 16 52 29 60 29 98 58 98 77 0 8 3 13 8 10 11 -7 34 14 66 61 l28 42 -20 33
c-31 49 -60 74 -126 104 -59 27 -59 27 -243 22 -111 -3 -189 -10 -195 -16 -6
-6 -13 -32 -15 -59 -3 -38 1 -53 17 -72 l20 -23 133 12 c131 13 217 7 219 -15
2 -15 -95 -71 -171 -99 -98 -36 -168 -50 -247 -49 -84 1 -138 23 -159 64 -21
39 -19 69 9 143 40 105 96 160 225 223 102 49 117 54 205 58 65 4 73 8 85 51
10 36 -9 86 -41 108 -34 24 -112 18 -205 -14z"/>
<path d="M8835 3174 c-457 -53 -505 -61 -530 -97 -21 -30 -19 -44 10 -72 29
-29 67 -32 168 -10 37 8 98 17 135 20 37 4 70 9 75 12 9 6 9 -23 -3 -72 -20
-87 -50 -312 -50 -374 0 -75 15 -106 55 -114 34 -6 52 21 60 93 24 212 63 449
76 466 19 23 124 38 259 36 l135 -2 13 27 c17 38 15 77 -6 96 -26 23 -144 21
-397 -9z"/>
<path d="M6729 2983 c-14 -38 0 -75 33 -87 59 -21 78 28 32 83 -32 38 -51 39
-65 4z"/>
<path d="M7564 2945 c-11 -29 5 -83 27 -88 62 -16 77 52 19 86 -35 21 -39 21
-46 2z"/>
<path d="M2206 2874 c-73 -23 -104 -50 -121 -108 -32 -106 -14 -221 41 -272
113 -102 360 -48 444 99 35 62 37 83 9 146 -22 53 -93 114 -157 137 -49 17
-155 16 -216 -2z m267 -143 c43 -43 31 -66 -57 -106 -90 -41 -145 -50 -191
-31 -44 19 -52 39 -30 72 9 14 17 37 18 52 2 24 8 28 57 39 30 7 82 10 115 8
49 -4 65 -10 88 -34z"/>
<path d="M9416 2874 c-69 -22 -103 -50 -121 -102 -20 -59 -19 -171 1 -221 73
-182 426 -125 503 82 31 81 -53 202 -167 243 -49 17 -155 16 -216 -2z m256
-131 c55 -50 42 -79 -57 -123 -80 -36 -136 -44 -180 -26 -44 19 -52 39 -30 72
9 14 17 37 18 52 2 24 8 28 57 39 74 16 166 10 192 -14z"/>
<path d="M10025 2874 c-69 -22 -109 -55 -123 -102 -16 -54 -15 -185 2 -226 16
-38 64 -78 115 -95 127 -42 315 36 379 157 16 32 15 107 -2 140 -18 34 -70 82
-121 112 -52 30 -176 37 -250 14z m263 -139 c42 -49 26 -77 -68 -118 -83 -36
-133 -41 -186 -18 -24 11 -44 24 -44 28 0 4 9 23 20 41 11 18 20 41 20 52 0
10 5 22 11 25 21 14 106 24 164 20 49 -4 64 -10 83 -30z"/>
<path d="M5310 2861 c-47 -10 -207 -79 -245 -105 -18 -13 -46 -21 -69 -21 -36
0 -40 -3 -52 -35 -16 -44 -18 -171 -3 -204 13 -28 51 -41 78 -27 14 8 20 25
23 66 7 82 43 114 197 172 89 33 144 42 193 32 67 -16 99 7 77 54 -25 55 -116
86 -199 68z"/>
<path d="M11120 2860 c-52 -11 -70 -31 -70 -77 0 -70 47 -121 154 -168 32 -14
55 -29 52 -33 -4 -3 -53 -11 -109 -17 -99 -10 -102 -11 -105 -36 -5 -43 26
-60 139 -75 99 -12 103 -12 167 11 72 26 82 36 82 80 0 59 -56 114 -170 168
l-65 30 38 9 c26 5 59 3 98 -6 52 -12 62 -12 75 1 7 8 14 21 14 28 0 19 -38
54 -78 70 -43 19 -165 26 -222 15z"/>
<path d="M5766 2845 c-27 -7 -53 -18 -59 -24 -6 -6 -18 -11 -27 -11 -39 0
-120 -121 -120 -180 0 -38 24 -98 52 -127 55 -59 233 -84 321 -44 23 10 50 21
60 25 10 3 17 12 14 19 -2 6 3 17 11 23 12 8 12 15 3 32 -14 26 -14 26 -88 7
-60 -16 -131 -18 -173 -6 -23 7 -19 10 40 38 81 37 137 84 145 124 23 104 -57
159 -179 124z m64 -93 c0 -23 -92 -82 -126 -82 -27 0 22 48 71 71 45 21 55 23
55 11z"/>
<path d="M2954 2819 c-27 -18 -69 -49 -93 -70 -24 -22 -47 -39 -52 -39 -4 0
-10 13 -14 29 -3 16 -16 38 -28 49 -39 37 -57 8 -82 -128 -18 -102 -17 -175 2
-175 6 0 15 -3 19 -7 4 -5 19 -8 34 -8 21 0 34 10 53 39 59 89 203 222 209
194 0 -5 2 -61 2 -125 1 -124 6 -138 53 -152 36 -11 52 35 59 167 6 95 4 124
-10 169 -32 97 -67 110 -152 57z"/>
<path d="M6394 2819 c-27 -18 -69 -49 -93 -70 -24 -22 -47 -39 -51 -39 -4 0
-10 11 -14 23 -8 35 -45 77 -61 71 -19 -8 -42 -82 -56 -184 -12 -84 -7 -146
11 -135 5 3 11 1 15 -5 3 -5 19 -10 34 -10 22 0 34 9 54 39 58 88 204 223 208
194 1 -5 2 -61 3 -125 1 -126 8 -145 56 -150 37 -4 50 35 57 170 5 96 3 128
-11 167 -31 93 -68 106 -152 54z"/>
<path d="M7174 2822 c-23 -15 -65 -46 -94 -69 -28 -24 -55 -43 -60 -43 -4 0
-10 12 -14 28 -8 39 -39 74 -57 67 -20 -7 -33 -51 -54 -173 -16 -89 -13 -158
5 -147 5 3 11 1 15 -5 3 -5 19 -10 35 -10 21 0 35 9 51 33 49 69 146 170 182
188 l38 20 -3 -119 c-3 -104 -1 -122 15 -140 21 -23 50 -33 66 -23 16 10 33
114 35 216 1 75 -3 98 -22 140 -12 27 -28 53 -35 57 -23 15 -62 7 -103 -20z"/>
<path d="M10774 2819 c-27 -18 -69 -49 -93 -70 -24 -22 -47 -39 -50 -39 -4 0
-12 15 -19 34 -7 18 -21 41 -31 50 -17 15 -20 15 -34 2 -18 -19 -44 -127 -53
-223 -6 -67 -6 -70 19 -86 43 -28 71 -22 99 21 63 94 193 214 212 195 3 -3 3
-45 -1 -93 -8 -119 0 -156 39 -176 26 -14 32 -14 44 -2 33 33 46 262 19 339
-31 87 -69 99 -151 48z"/>
<path d="M7997 2776 c-37 -13 -95 -42 -127 -63 -48 -30 -64 -48 -81 -87 -34
-78 -7 -152 64 -175 42 -14 137 16 182 58 16 15 46 40 66 55 l36 26 27 -35
c15 -19 40 -42 57 -50 28 -15 30 -14 54 9 24 24 25 27 11 60 -25 60 -86 148
-107 153 -11 3 -26 18 -35 34 -8 16 -20 29 -27 29 -6 0 -21 2 -32 5 -11 3 -51
-6 -88 -19z m57 -127 c-32 -35 -144 -83 -144 -61 0 23 103 81 144 82 19 0 19
0 0 -21z"/>
<path d="M7599 2763 c-9 -10 -13 -37 -12 -72 9 -330 7 -438 -10 -493 -14 -45
-22 -58 -37 -58 -35 0 -124 41 -155 71 -60 57 -62 -13 -4 -108 28 -45 99 -92
167 -110 71 -19 100 -11 117 31 43 102 63 338 44 533 -9 101 -15 125 -40 171
-32 55 -48 63 -70 35z"/>
<path d="M6700 2735 c-19 -22 -25 -154 -10 -214 9 -40 17 -52 35 -57 55 -14
59 -6 69 104 9 102 9 102 -19 142 -29 42 -54 50 -75 25z"/>
</g>
</svg>
